<?xml version="1.0" encoding="UTF-8" standalone="no"?>
<!-- Creator: CorelDRAW -->

<svg
   xmlns:dc="http://purl.org/dc/elements/1.1/"
   xmlns:cc="http://creativecommons.org/ns#"
   xmlns:rdf="http://www.w3.org/1999/02/22-rdf-syntax-ns#"
   xmlns:svg="http://www.w3.org/2000/svg"
   xmlns="http://www.w3.org/2000/svg"
   xmlns:xlink="http://www.w3.org/1999/xlink"
   xmlns:sodipodi="http://sodipodi.sourceforge.net/DTD/sodipodi-0.dtd"
   xmlns:inkscape="http://www.inkscape.org/namespaces/inkscape"
   xml:space="preserve"
   width="40mm"
   height="70mm"
   style="shape-rendering:geometricPrecision; text-rendering:geometricPrecision; image-rendering:optimizeQuality; fill-rule:evenodd; clip-rule:evenodd"
   viewBox="0 0 40 70"
   id="svg2878"
   version="1.1"
   inkscape:version="0.47 r22583"
   sodipodi:docname="atwood.svg"><metadata
   id="metadata2936"><rdf:RDF><cc:Work
       rdf:about=""><dc:format>image/svg+xml</dc:format><dc:type
         rdf:resource="http://purl.org/dc/dcmitype/StillImage" /></cc:Work></rdf:RDF></metadata><sodipodi:namedview
   pagecolor="#ffffff"
   bordercolor="#666666"
   borderopacity="1"
   objecttolerance="10"
   gridtolerance="10"
   guidetolerance="10"
   inkscape:pageopacity="0"
   inkscape:pageshadow="2"
   inkscape:window-width="1024"
   inkscape:window-height="719"
   id="namedview2934"
   showgrid="false"
   inkscape:zoom="2.6627172"
   inkscape:cx="66.910461"
   inkscape:cy="126.42693"
   inkscape:window-x="-4"
   inkscape:window-y="-4"
   inkscape:window-maximized="1"
   inkscape:current-layer="Warstwa_x0020_1"
   inkscape:snap-nodes="true" />
 <defs
   id="defs2880"><inkscape:perspective
   sodipodi:type="inkscape:persp3d"
   inkscape:vp_x="0 : 124.01575 : 1"
   inkscape:vp_y="0 : 1000 : 0"
   inkscape:vp_z="141.73228 : 124.01575 : 1"
   inkscape:persp3d-origin="70.866142 : 82.677165 : 1"
   id="perspective2938" />
  <style
   type="text/css"
   id="style2882">
   
    .str0 {stroke:#1F1A17;stroke-width:0.1763}
    .str1 {stroke:#CC6624;stroke-width:0.2117}
    .fil2 {fill:none}
    .fil1 {fill:#1F1A17}
    .fil0 {fill:#605D5C}
    .fil3 {fill:#C2C1C1}
    .fil7 {fill:#007CC3;fill-rule:nonzero}
    .fil5 {fill:#1F1A17;fill-rule:nonzero}
    .fil6 {fill:#44916C;fill-rule:nonzero}
    .fil4 {fill:url(#id0)}
   
  </style>
  <linearGradient
   id="id0"
   gradientUnits="userSpaceOnUse"
   x1="5.6018"
   y1="54.3698"
   x2="11.9258"
   y2="54.3698">
   <stop
   offset="0"
   style="stop-color:#1F1A17"
   id="stop2885" />
   <stop
   offset="1"
   style="stop-color:#AAA9A9"
   id="stop2887" />

  </linearGradient>
 <linearGradient
   inkscape:collect="always"
   xlink:href="#id0"
   id="linearGradient2940"
   gradientUnits="userSpaceOnUse"
   x1="5.6018"
   y1="54.3698"
   x2="11.9258"
   y2="54.3698" /><linearGradient
   inkscape:collect="always"
   xlink:href="#id0"
   id="linearGradient2942"
   gradientUnits="userSpaceOnUse"
   x1="5.6018"
   y1="54.3698"
   x2="11.9258"
   y2="54.3698" />
   
   
   
   

   
   
   
   
   
   
   
   
   

   
   
   
   
   
   
   
   
   

   
   
   
   
   
   
   
   
   
  <linearGradient
   inkscape:collect="always"
   xlink:href="#id0"
   id="linearGradient2963"
   gradientUnits="userSpaceOnUse"
   x1="5.6018"
   y1="54.3698"
   x2="11.9258"
   y2="54.3698" /><linearGradient
   inkscape:collect="always"
   xlink:href="#id0"
   id="linearGradient2966"
   gradientUnits="userSpaceOnUse"
   x1="5.6018"
   y1="54.3698"
   x2="11.9258"
   y2="54.3698" /><inkscape:perspective
   id="perspective3029"
   inkscape:persp3d-origin="0.5 : 0.33333333 : 1"
   inkscape:vp_z="1 : 0.5 : 1"
   inkscape:vp_y="0 : 1000 : 0"
   inkscape:vp_x="0 : 0.5 : 1"
   sodipodi:type="inkscape:persp3d" /><linearGradient
   inkscape:collect="always"
   xlink:href="#id0-8"
   id="linearGradient2966-4"
   gradientUnits="userSpaceOnUse"
   x1="5.6018"
   y1="54.369801"
   x2="11.9258"
   y2="54.369801" /><linearGradient
   id="id0-8"
   gradientUnits="userSpaceOnUse"
   x1="5.6018"
   y1="54.369801"
   x2="11.9258"
   y2="54.369801"><stop
     offset="0"
     style="stop-color:#1F1A17"
     id="stop2885-8" /><stop
     offset="1"
     style="stop-color:#AAA9A9"
     id="stop2887-2" /></linearGradient><linearGradient
   gradientTransform="matrix(1.0080827,0,0,0.4845688,-39.136996,20.475624)"
   y2="54.369801"
   x2="11.9258"
   y1="54.369801"
   x1="5.6018"
   gradientUnits="userSpaceOnUse"
   id="linearGradient3038"
   xlink:href="#id0-8"
   inkscape:collect="always" /><inkscape:perspective
   id="perspective3071"
   inkscape:persp3d-origin="0.5 : 0.33333333 : 1"
   inkscape:vp_z="1 : 0.5 : 1"
   inkscape:vp_y="0 : 1000 : 0"
   inkscape:vp_x="0 : 0.5 : 1"
   sodipodi:type="inkscape:persp3d" /><inkscape:perspective
   id="perspective3096"
   inkscape:persp3d-origin="0.5 : 0.33333333 : 1"
   inkscape:vp_z="1 : 0.5 : 1"
   inkscape:vp_y="0 : 1000 : 0"
   inkscape:vp_x="0 : 0.5 : 1"
   sodipodi:type="inkscape:persp3d" /><inkscape:perspective
   id="perspective3121"
   inkscape:persp3d-origin="0.5 : 0.33333333 : 1"
   inkscape:vp_z="1 : 0.5 : 1"
   inkscape:vp_y="0 : 1000 : 0"
   inkscape:vp_x="0 : 0.5 : 1"
   sodipodi:type="inkscape:persp3d" /><inkscape:perspective
   id="perspective2877"
   inkscape:persp3d-origin="0.5 : 0.33333333 : 1"
   inkscape:vp_z="1 : 0.5 : 1"
   inkscape:vp_y="0 : 1000 : 0"
   inkscape:vp_x="0 : 0.5 : 1"
   sodipodi:type="inkscape:persp3d" /><inkscape:perspective
   id="perspective2902"
   inkscape:persp3d-origin="0.5 : 0.33333333 : 1"
   inkscape:vp_z="1 : 0.5 : 1"
   inkscape:vp_y="0 : 1000 : 0"
   inkscape:vp_x="0 : 0.5 : 1"
   sodipodi:type="inkscape:persp3d" /><inkscape:perspective
   id="perspective3703"
   inkscape:persp3d-origin="0.5 : 0.33333333 : 1"
   inkscape:vp_z="1 : 0.5 : 1"
   inkscape:vp_y="0 : 1000 : 0"
   inkscape:vp_x="0 : 0.5 : 1"
   sodipodi:type="inkscape:persp3d" /><inkscape:perspective
   id="perspective3728"
   inkscape:persp3d-origin="0.5 : 0.33333333 : 1"
   inkscape:vp_z="1 : 0.5 : 1"
   inkscape:vp_y="0 : 1000 : 0"
   inkscape:vp_x="0 : 0.5 : 1"
   sodipodi:type="inkscape:persp3d" /></defs>
 <g
   id="Warstwa_x0020_1">
  <metadata
   id="CorelCorpID_0Corel-Layer" />
  <path
   style="fill:#605d5c"
   d="m 19.5809,6.1871 c 5.9731,0 10.8171,4.844 10.8171,10.8171 0,5.9731 -4.844,10.8171 -10.8171,10.8171 -5.9731,0 -10.8171,-4.844 -10.8171,-10.8171 0,-5.9731 4.844,-10.8171 10.8171,-10.8171 z"
   class="fil0"
   id="_41527632" /><path
   style="fill:#1f1a17"
   d="m 19.5809,15.3817 c 0.896,0 1.6225,0.7265 1.6225,1.6225 0,0.896 -0.7265,1.6225 -1.6225,1.6225 -0.896,0 -1.6225,-0.7265 -1.6225,-1.6225 0,-0.896 0.7265,-1.6225 1.6225,-1.6225 z"
   class="fil1"
   id="_42310736" /><line
   style="fill:none;stroke:#1f1a17;stroke-width:0.1763"
   y2="4.2344999"
   x2="5.7825999"
   y1="4.2344999"
   x1="34.398102"
   class="fil2 str0"
   id="_42314824" /><line
   style="fill:none;stroke:#1f1a17;stroke-width:0.1763"
   y2="1.6566"
   x2="8.0311003"
   y1="4.2344999"
   x1="6.3481002"
   class="fil2 str0"
   id="_41856448" /><line
   style="fill:none;stroke:#1f1a17;stroke-width:0.1763"
   y2="1.6566"
   x2="10.8533"
   y1="4.2344999"
   x1="9.1702995"
   class="fil2 str0"
   id="_41923232" /><line
   style="fill:none;stroke:#1f1a17;stroke-width:0.1763"
   y2="1.6566"
   x2="13.6755"
   y1="4.2344999"
   x1="11.9925"
   class="fil2 str0"
   id="_23694712" /><line
   style="fill:none;stroke:#1f1a17;stroke-width:0.1763"
   y2="1.6566"
   x2="16.4977"
   y1="4.2344999"
   x1="14.8147"
   class="fil2 str0"
   id="_23628472" /><line
   style="fill:none;stroke:#1f1a17;stroke-width:0.1763"
   y2="1.6566"
   x2="19.319901"
   y1="4.2344999"
   x1="17.6369"
   class="fil2 str0"
   id="_41776584" /><line
   style="fill:none;stroke:#1f1a17;stroke-width:0.1763"
   y2="1.6566"
   x2="22.1422"
   y1="4.2344999"
   x1="20.4592"
   class="fil2 str0"
   id="_41854352" /><line
   style="fill:none;stroke:#1f1a17;stroke-width:0.1763"
   y2="1.6566"
   x2="24.964399"
   y1="4.2344999"
   x1="23.281401"
   class="fil2 str0"
   id="_40874840" /><line
   style="fill:none;stroke:#1f1a17;stroke-width:0.1763"
   y2="1.6566"
   x2="27.7866"
   y1="4.2344999"
   x1="26.1036"
   class="fil2 str0"
   id="_42385056" /><line
   style="fill:none;stroke:#1f1a17;stroke-width:0.1763"
   y2="1.6566"
   x2="30.608801"
   y1="4.2344999"
   x1="28.9258"
   class="fil2 str0"
   id="_41924464" /><line
   style="fill:none;stroke:#1f1a17;stroke-width:0.1763"
   y2="1.6566"
   x2="33.431099"
   y1="4.2344999"
   x1="31.7481"
   class="fil2 str0"
   id="_23703768" /><path
   style="fill:none;stroke:#cc6624;stroke-width:0.21170001"
   d="m 30.398,44.9336 0,-27.9294 c 0,-5.9731 -4.844,-10.8171 -10.8171,-10.8171 -5.9731,0 -10.8171,4.844 -10.8171,10.8171 l 0,33.4596"
   class="fil2 str1"
   id="_40252280" /><path
   style="fill:#c2c1c1;stroke:#1f1a17;stroke-width:0.1763"
   d="m 16.3186,4.2345 2.7543,13.0237 c 0.1178,0.4982 0.8865,0.4876 1.016,0 l 2.7543,-13.0237 -6.5246,0 z"
   class="fil3 str0"
   id="_22886024" /><rect
   style="fill:url(#linearGradient2966)"
   height="7.8119998"
   width="6.3239999"
   y="50.463799"
   x="5.6018"
   class="fil4"
   id="_42349256" /><path
   style="fill:#1f1a17;fill-rule:nonzero"
   d="m 13.1444,53.4898 -0.1792,0.6213 c 0.08,-0.1463 0.1477,-0.2559 0.2042,-0.3292 0.087,-0.1139 0.1721,-0.1967 0.2549,-0.2484 0.0485,-0.0292 0.0993,-0.0437 0.1529,-0.0437 0.0456,0 0.0837,0.0145 0.1143,0.0437 0.0301,0.0296 0.0456,0.0673 0.0456,0.1134 0,0.0446 -0.0108,0.1034 -0.032,0.1763 l -0.0978,0.35 c 0.15,-0.2803 0.2916,-0.477 0.4257,-0.5898 0.0748,-0.0626 0.1481,-0.0936 0.2206,-0.0936 0.0423,0 0.0771,0.0141 0.1039,0.0432 0.0273,0.0287 0.0409,0.0739 0.0409,0.1346 0,0.0531 -0.0084,0.1096 -0.0249,0.1693 l -0.1514,0.5362 c -0.0334,0.1167 -0.0499,0.1811 -0.0499,0.1943 0,0.0127 0.0042,0.0235 0.0127,0.0329 0.0052,0.0066 0.0127,0.0094 0.0221,0.0094 0.0089,0 0.0249,-0.0085 0.048,-0.0259 0.0522,-0.0404 0.1016,-0.0936 0.1477,-0.1599 l 0.0451,0.0287 c -0.023,0.0372 -0.0635,0.0875 -0.1218,0.1519 -0.0583,0.064 -0.1082,0.1077 -0.1496,0.1308 -0.0414,0.023 -0.0795,0.0343 -0.1143,0.0343 -0.032,0 -0.0592,-0.0108 -0.0804,-0.0329 -0.0216,-0.0221 -0.0325,-0.0489 -0.0325,-0.0814 0,-0.0442 0.0189,-0.1326 0.0565,-0.2657 l 0.1251,-0.4426 c 0.0287,-0.1021 0.0438,-0.1586 0.0456,-0.1694 0.0029,-0.0174 0.0043,-0.0343 0.0043,-0.0508 0,-0.023 -0.0052,-0.0409 -0.0151,-0.0541 -0.0113,-0.0127 -0.0235,-0.0193 -0.0371,-0.0193 -0.0386,0 -0.0795,0.0198 -0.1228,0.0593 -0.127,0.1167 -0.2455,0.2804 -0.3556,0.4906 -0.0724,0.1388 -0.1406,0.3166 -0.2041,0.5334 l -0.2079,0 0.2356,-0.8335 c 0.0259,-0.0903 0.0386,-0.1505 0.0386,-0.1806 0,-0.0249 -0.0052,-0.0433 -0.0151,-0.055 -0.0103,-0.0123 -0.0226,-0.0184 -0.0371,-0.0184 -0.0306,0 -0.0626,0.0113 -0.0965,0.0334 -0.0555,0.0358 -0.126,0.1124 -0.213,0.23 -0.0871,0.1176 -0.1543,0.23 -0.2018,0.3377 -0.0231,0.0504 -0.0776,0.2126 -0.1642,0.4864 l -0.2037,0 0.255,-0.8928 0.0329,-0.1161 c 0.0066,-0.0174 0.0094,-0.0301 0.0094,-0.0386 0,-0.0202 -0.0089,-0.0381 -0.0273,-0.0541 -0.0183,-0.016 -0.0418,-0.0245 -0.0705,-0.0245 -0.0118,0 -0.0447,0.0057 -0.0993,0.017 l -0.0122,-0.0513 0.4755,-0.0865 z"
   class="fil5"
   id="_42380280" /><path
   style="fill:#1f1a17;fill-rule:nonzero"
   d="m 14.819,54.3183 0.3407,-0.1658 0.0339,0 0,1.1832 c 0,0.0783 0.0035,0.1277 0.0099,0.1468 0.007,0.019 0.0204,0.0338 0.0409,0.0444 0.0205,0.0106 0.0628,0.0162 0.1263,0.0177 l 0,0.0381 -0.5271,0 0,-0.0381 c 0.0657,-0.0015 0.1087,-0.0071 0.1278,-0.017 0.0197,-0.0106 0.0331,-0.024 0.0402,-0.0409 0.0077,-0.0162 0.012,-0.067 0.012,-0.151 l 0,-0.7563 c 0,-0.1023 -0.0036,-0.168 -0.0106,-0.1969 -0.005,-0.0219 -0.0134,-0.0381 -0.0261,-0.0487 -0.0127,-0.0098 -0.0282,-0.0155 -0.0466,-0.0155 -0.0254,0 -0.0607,0.0113 -0.1058,0.0325 L 14.819,54.3183 z"
   class="fil5"
   id="_423802801" /><path
   style="fill:#1f1a17;fill-rule:nonzero"
   d="m 13.041,64.4783 0.3407,-0.1658 0.0339,0 0,1.1832 c 0,0.0783 0.0035,0.1277 0.0099,0.1468 0.007,0.019 0.0204,0.0338 0.0409,0.0444 0.0205,0.0106 0.0628,0.0162 0.1263,0.0177 l 0,0.0381 -0.5271,0 0,-0.0381 c 0.0657,-0.0015 0.1087,-0.0071 0.1278,-0.017 0.0197,-0.0106 0.0331,-0.024 0.0402,-0.0409 0.0077,-0.0162 0.012,-0.067 0.012,-0.151 l 0,-0.7563 c 0,-0.1023 -0.0036,-0.168 -0.0106,-0.1969 -0.005,-0.0219 -0.0134,-0.0381 -0.0261,-0.0487 -0.0127,-0.0098 -0.0282,-0.0155 -0.0466,-0.0155 -0.0254,0 -0.0607,0.0113 -0.1058,0.0325 L 13.041,64.4783 z"
   class="fil5"
   id="_423960801" /><path
   style="fill:#1f1a17;fill-rule:nonzero"
   d="m 28.7467,55.1302 -0.098,0.2696 -0.8269,0 0,-0.0381 c 0.2434,-0.2223 0.4148,-0.4029 0.5136,-0.544 0.0995,-0.1404 0.1489,-0.2688 0.1489,-0.3853 0,-0.0889 -0.0268,-0.1622 -0.0812,-0.2194 -0.0543,-0.0571 -0.1199,-0.0854 -0.1954,-0.0854 -0.0692,0 -0.1305,0.0198 -0.1856,0.06 -0.055,0.0409 -0.0952,0.0995 -0.1213,0.1778 l -0.0381,0 c 0.0169,-0.1277 0.0614,-0.2258 0.1326,-0.2935 0.0713,-0.0684 0.1602,-0.1023 0.2667,-0.1023 0.1143,0 0.2089,0.036 0.2851,0.1094 0.0762,0.0726 0.1143,0.1594 0.1143,0.2582 0,0.0713 -0.017,0.1418 -0.0494,0.2131 -0.0515,0.1114 -0.1341,0.23 -0.2484,0.3542 -0.1714,0.1876 -0.2787,0.3005 -0.3217,0.3393 l 0.3662,0 c 0.0741,0 0.1263,-0.0028 0.1566,-0.0084 0.0296,-0.0057 0.0571,-0.017 0.0811,-0.0339 0.024,-0.0162 0.0452,-0.0402 0.0628,-0.0713 l 0.0381,0 z"
   class="fil5"
   id="_423808001" /><path
   style="fill:#1f1a17;fill-rule:nonzero"
   d="m 24.2724,46.3718 -0.1792,0.6213 c 0.08,-0.1463 0.1477,-0.2559 0.2042,-0.3292 0.087,-0.1139 0.1721,-0.1967 0.2549,-0.2484 0.0485,-0.0292 0.0993,-0.0437 0.1529,-0.0437 0.0456,0 0.0837,0.0145 0.1143,0.0437 0.0301,0.0296 0.0456,0.0673 0.0456,0.1134 0,0.0446 -0.0108,0.1034 -0.032,0.1763 l -0.0978,0.35 c 0.15,-0.2803 0.2916,-0.477 0.4257,-0.5898 0.0748,-0.0626 0.1481,-0.0936 0.2206,-0.0936 0.0423,0 0.0771,0.0141 0.1039,0.0432 0.0273,0.0287 0.0409,0.0739 0.0409,0.1346 0,0.0531 -0.0084,0.1096 -0.0249,0.1693 l -0.1514,0.5362 c -0.0334,0.1167 -0.0499,0.1811 -0.0499,0.1943 0,0.0127 0.0042,0.0235 0.0127,0.0329 0.0052,0.0066 0.0127,0.0094 0.0221,0.0094 0.0089,0 0.0249,-0.0085 0.048,-0.0259 0.0522,-0.0404 0.1016,-0.0936 0.1477,-0.1599 l 0.0451,0.0287 c -0.023,0.0372 -0.0635,0.0875 -0.1218,0.1519 -0.0583,0.064 -0.1082,0.1077 -0.1496,0.1308 -0.0414,0.023 -0.0795,0.0343 -0.1143,0.0343 -0.032,0 -0.0592,-0.0108 -0.0804,-0.0329 -0.0216,-0.0221 -0.0325,-0.0489 -0.0325,-0.0814 0,-0.0442 0.0189,-0.1326 0.0565,-0.2657 l 0.1251,-0.4426 c 0.0287,-0.1021 0.0438,-0.1586 0.0456,-0.1694 0.0029,-0.0174 0.0043,-0.0343 0.0043,-0.0508 0,-0.023 -0.0052,-0.0409 -0.0151,-0.0541 -0.0113,-0.0127 -0.0235,-0.0193 -0.0371,-0.0193 -0.0386,0 -0.0795,0.0198 -0.1228,0.0593 -0.127,0.1167 -0.2455,0.2804 -0.3556,0.4906 -0.0724,0.1388 -0.1406,0.3166 -0.2041,0.5334 l -0.2079,0 0.2356,-0.8335 c 0.0259,-0.0903 0.0386,-0.1505 0.0386,-0.1806 0,-0.0249 -0.0052,-0.0433 -0.0151,-0.055 -0.0103,-0.0123 -0.0226,-0.0184 -0.0371,-0.0184 -0.0306,0 -0.0626,0.0113 -0.0965,0.0334 -0.0555,0.0358 -0.126,0.1124 -0.213,0.23 -0.0871,0.1176 -0.1543,0.23 -0.2018,0.3377 -0.0231,0.0504 -0.0776,0.2126 -0.1642,0.4864 l -0.2037,0 0.255,-0.8928 0.0329,-0.1161 c 0.0066,-0.0174 0.0094,-0.0301 0.0094,-0.0386 0,-0.0202 -0.0089,-0.0381 -0.0273,-0.0541 -0.0183,-0.016 -0.0418,-0.0245 -0.0705,-0.0245 -0.0118,0 -0.0447,0.0057 -0.0993,0.017 l -0.0122,-0.0513 0.4755,-0.0865 z"
   class="fil5"
   id="_42353480" /><path
   style="fill:#1f1a17;fill-rule:nonzero"
   d="m 26.6687,48.1951 -0.098,0.2696 -0.8269,0 0,-0.0381 c 0.2434,-0.2223 0.4148,-0.4029 0.5136,-0.544 0.0995,-0.1404 0.1489,-0.2688 0.1489,-0.3853 0,-0.0889 -0.0268,-0.1622 -0.0812,-0.2194 -0.0543,-0.0571 -0.1199,-0.0854 -0.1954,-0.0854 -0.0692,0 -0.1305,0.0198 -0.1856,0.06 -0.055,0.0409 -0.0952,0.0995 -0.1213,0.1778 l -0.0381,0 c 0.0169,-0.1277 0.0614,-0.2258 0.1326,-0.2935 0.0713,-0.0684 0.1602,-0.1023 0.2667,-0.1023 0.1143,0 0.2089,0.036 0.2851,0.1094 0.0762,0.0726 0.1143,0.1594 0.1143,0.2582 0,0.0713 -0.017,0.1418 -0.0494,0.2131 -0.0515,0.1114 -0.1341,0.23 -0.2484,0.3542 -0.1714,0.1876 -0.2787,0.3005 -0.3217,0.3393 l 0.3662,0 c 0.0741,0 0.1263,-0.0028 0.1566,-0.0084 0.0296,-0.0057 0.0571,-0.017 0.0811,-0.0339 0.024,-0.0162 0.0452,-0.0402 0.0628,-0.0713 l 0.0381,0 z"
   class="fil5"
   id="_423534801" /><g
   id="g2919">
    <path
   style="fill:#44916c;fill-rule:nonzero"
   d="m 8.5881,67.0923 0,-8.8165 0.3514,0 0,8.8165 -0.3514,0 z m 0.1757,1.251 -1.0668,-2.4892 0.0667,0.0323 0.0666,0.0302 0.0667,0.0281 0.0667,0.0261 0.0667,0.0239 0.0666,0.0219 0.0667,0.0198 0.0667,0.0177 0.0667,0.0157 0.0666,0.0135 0.0667,0.0115 0.0667,0.0093 0.0667,0.0073 0.0666,0.0052 0.0667,0.0032 0.0667,0.001 0.0667,-0.001 0.0666,-0.0032 0.0667,-0.0052 0.0667,-0.0073 0.0667,-0.0093 0.0666,-0.0115 0.0667,-0.0135 0.0667,-0.0157 0.0667,-0.0177 0.0666,-0.0198 0.0667,-0.0219 0.0667,-0.0239 0.0667,-0.0261 0.0666,-0.0281 0.0667,-0.0302 0.0667,-0.0323 0,0 -1.0668,2.4892 z"
   class="fil6"
   id="_42614264" />
   </g><g
   id="g2922">

    <path
   style="fill:#007cc3;fill-rule:nonzero"
   id="path2924"
   d="m 8.9402,43.4613 0,7.0025 -0.3528,0 0,-7.0025 0.3528,0 z M 8.7638,42.2103 9.8306,44.6995 9.7639,44.6672 9.6972,44.637 9.6306,44.6089 9.5639,44.5828 9.4972,44.5589 9.4305,44.537 9.3639,44.5172 9.2972,44.4995 9.2305,44.4838 9.1638,44.4703 9.0972,44.4588 9.0305,44.4495 8.9638,44.4422 8.8971,44.437 8.8305,44.4338 8.7638,44.4328 8.6971,44.4338 8.6304,44.437 8.5638,44.4422 8.4971,44.4495 8.4304,44.4588 8.3637,44.4703 8.2971,44.4838 8.2304,44.4995 8.1637,44.5172 8.097,44.537 8.0304,44.5589 7.9637,44.5828 7.897,44.6089 7.8303,44.637 7.7637,44.6672 7.697,44.6995 l 0,0 1.0668,-2.4892 z"
   class="fil7" />
   </g><g
   id="g2926">
    <path
   style="fill:#007cc3;fill-rule:nonzero"
   id="path2928"
   d="m 30.5744,37.9311 0,7.0025 -0.3528,0 0,-7.0025 0.3528,0 z M 30.398,36.6801 31.4648,39.1693 31.3981,39.137 31.3314,39.1068 31.2648,39.0787 31.1981,39.0526 31.1314,39.0287 31.0647,39.0068 30.9981,38.987 30.9314,38.9693 30.8647,38.9536 30.798,38.9401 30.7314,38.9286 30.6647,38.9193 30.598,38.912 l -0.0667,-0.0052 -0.0666,-0.0032 -0.0667,-10e-4 -0.0667,10e-4 -0.0667,0.0032 -0.0666,0.0052 -0.0667,0.0073 -0.0667,0.0093 -0.0667,0.0115 -0.0666,0.0135 -0.0667,0.0157 -0.0667,0.0177 -0.0667,0.0198 -0.0666,0.0219 -0.0667,0.0239 -0.0667,0.0261 -0.0667,0.0281 -0.0666,0.0302 -0.0667,0.0323 0,0 1.0668,-2.4892 z"
   class="fil7" />
   </g><g
   id="g2930">
    <path
   style="fill:#44916c;fill-rule:nonzero"
   id="path2932"
   d="m 30.2216,52.6224 0,-3.7828 0.3528,0 0,3.7828 -0.3528,0 z m 0.1764,1.251 -1.0668,-2.4892 0.0667,0.0323 0.0666,0.0302 0.0667,0.0281 0.0667,0.0261 0.0667,0.0239 0.0666,0.0219 0.0667,0.0198 0.0667,0.0177 0.0667,0.0157 0.0666,0.0135 0.0667,0.0115 0.0667,0.0093 0.0667,0.0073 0.0666,0.0052 0.0667,0.0032 0.0667,10e-4 0.0667,-10e-4 0.0666,-0.0032 0.0667,-0.0052 0.0667,-0.0073 0.0667,-0.0093 0.0666,-0.0115 0.0667,-0.0135 0.0667,-0.0157 0.0667,-0.0177 0.0666,-0.0198 0.0667,-0.0219 0.0667,-0.0239 0.0667,-0.0261 0.0666,-0.0281 0.0667,-0.0302 0.0667,-0.0323 0,0 -1.0668,2.4892 z"
   class="fil6" />
   </g>

 <rect
   style="fill:url(#linearGradient3038);fill-rule:evenodd"
   height="3.7854517"
   width="6.3751154"
   y="44.928806"
   x="-33.489918"
   class="fil4"
   id="_42349256-4"
   transform="scale(-1,1)" /><text
   xml:space="preserve"
   style="font-size:2.82222223px;font-style:italic;font-variant:normal;font-weight:normal;font-stretch:normal;text-align:start;line-height:125%;writing-mode:lr-tb;text-anchor:start;fill:#000000;fill-opacity:1;stroke:none;font-family:Times New Roman;-inkscape-font-specification:Times New Roman Italic"
   x="27.669617"
   y="42.743362"
   id="text3059"
   sodipodi:linespacing="125%"><tspan
     sodipodi:role="line"
     id="tspan3061"
     x="27.669617"
     y="42.743362">T</tspan></text>

<text
   xml:space="preserve"
   style="font-size:2.82222223px;font-style:italic;font-variant:normal;font-weight:normal;font-stretch:normal;text-align:start;line-height:125%;writing-mode:lr-tb;text-anchor:start;fill:#000000;fill-opacity:1;fill-rule:evenodd;stroke:none;font-family:Times New Roman;-inkscape-font-specification:Times New Roman Italic"
   x="9.5160475"
   y="47.910713"
   id="text3059-5"
   sodipodi:linespacing="125%"><tspan
     sodipodi:role="line"
     id="tspan3061-5"
     x="9.5160475"
     y="47.910713">T</tspan></text>

<text
   xml:space="preserve"
   style="font-size:2.82222223px;font-style:italic;font-variant:normal;font-weight:normal;font-stretch:normal;text-align:start;line-height:125%;writing-mode:lr-tb;text-anchor:start;fill:#000000;fill-opacity:1;fill-rule:evenodd;stroke:none;font-family:Times New Roman;-inkscape-font-specification:Times New Roman Italic"
   x="25.518997"
   y="54.931358"
   id="text3059-1"
   sodipodi:linespacing="125%"><tspan
     sodipodi:role="line"
     id="tspan3061-7"
     x="25.518997"
     y="54.931358">W</tspan></text>

<text
   xml:space="preserve"
   style="font-size:2.82222223px;font-style:italic;font-variant:normal;font-weight:normal;font-stretch:normal;text-align:start;line-height:125%;writing-mode:lr-tb;text-anchor:start;fill:#000000;fill-opacity:1;fill-rule:evenodd;stroke:none;font-family:Times New Roman;-inkscape-font-specification:Times New Roman Italic"
   x="10.576205"
   y="65.027992"
   id="text3059-1-1"
   sodipodi:linespacing="125%"><tspan
     sodipodi:role="line"
     id="tspan3061-7-1"
     x="10.576205"
     y="65.027992">W</tspan></text>

<g
   transform="matrix(0.61288024,0,0,0.51210215,26.505684,0.24915026)"
   style="fill:#31c931;fill-opacity:1;fill-rule:evenodd"
   id="g2922-1-4"><path
     style="fill:#31c931;fill-opacity:1;fill-rule:nonzero"
     id="path2924-7-0"
     d="m 8.9402001,43.4613 -0.070692,19.95655 -0.3392623,0 0.057154,-19.95655 0.3528,0 z M 8.7638,42.2103 9.8306,44.6995 9.7639,44.6672 9.6972,44.637 9.6306,44.6089 9.5639,44.5828 9.4972,44.5589 9.4305,44.537 9.3639,44.5172 9.2972,44.4995 9.2305,44.4838 9.1638,44.4703 9.0972,44.4588 9.0305,44.4495 8.9638,44.4422 8.8971,44.437 8.8305,44.4338 8.7638,44.4328 8.6971,44.4338 8.6304,44.437 8.5638,44.4422 8.4971,44.4495 8.4304,44.4588 8.3637,44.4703 8.2971,44.4838 8.2304,44.4995 8.1637,44.5172 8.097,44.537 8.0304,44.5589 7.9637,44.5828 7.897,44.6089 7.8303,44.637 7.7637,44.6672 7.697,44.6995 l 0,0 1.0668,-2.4892 z"
     class="fil7"
     sodipodi:nodetypes="ccccccccccccccccccccccccccccccccccccccccc" /></g><text
   xml:space="preserve"
   style="font-size:2.82222224px;font-style:italic;font-weight:normal;fill:#00c800;fill-opacity:1;stroke:none;font-family:Times New Roman;-inkscape-font-specification:Times New Roman Italic;font-stretch:normal;font-variant:normal;text-anchor:start;text-align:start;writing-mode:lr;line-height:125%"
   x="4.7492623"
   y="33.554569"
   id="text3691"
   sodipodi:linespacing="125%"><tspan
     sodipodi:role="line"
     id="tspan3693"
     x="4.7492623"
     y="33.554569"
     style="font-size:2.82222224px;font-family:Times New Roman;-inkscape-font-specification:Times New Roman Italic;font-weight:normal;font-style:italic;font-stretch:normal;font-variant:normal;text-anchor:start;text-align:start;writing-mode:lr;line-height:125%">a</tspan></text>
<text
   xml:space="preserve"
   style="font-size:2.82222223px;font-style:italic;font-variant:normal;font-weight:normal;font-stretch:normal;text-align:start;line-height:125%;writing-mode:lr-tb;text-anchor:start;fill:#00c800;fill-opacity:1;fill-rule:evenodd;stroke:none;font-family:Times New Roman;-inkscape-font-specification:Times New Roman Italic"
   x="32.300777"
   y="28.322231"
   id="text3691-9"
   sodipodi:linespacing="125%"><tspan
     sodipodi:role="line"
     id="tspan3693-4"
     x="32.300777"
     y="28.322231"
     style="font-size:2.82222223px;font-style:italic;font-variant:normal;font-weight:normal;font-stretch:normal;text-align:start;line-height:125%;writing-mode:lr-tb;text-anchor:start;font-family:Times New Roman;-inkscape-font-specification:Times New Roman Italic">a</tspan></text>
<g
   transform="matrix(0.61288025,0,0,-0.51210216,1.6752997,55.928945)"
   style="fill:#31c931;fill-opacity:1;fill-rule:evenodd"
   id="g2922-1-4-8"><path
     style="fill:#31c931;fill-opacity:1;fill-rule:nonzero"
     id="path2924-7-0-8"
     d="m 8.9402001,43.4613 -0.070692,19.95655 -0.3392623,0 0.057154,-19.95655 0.3528,0 z M 8.7638,42.2103 9.8306,44.6995 9.7639,44.6672 9.6972,44.637 9.6306,44.6089 9.5639,44.5828 9.4972,44.5589 9.4305,44.537 9.3639,44.5172 9.2972,44.4995 9.2305,44.4838 9.1638,44.4703 9.0972,44.4588 9.0305,44.4495 8.9638,44.4422 8.8971,44.437 8.8305,44.4338 8.7638,44.4328 8.6971,44.4338 8.6304,44.437 8.5638,44.4422 8.4971,44.4495 8.4304,44.4588 8.3637,44.4703 8.2971,44.4838 8.2304,44.4995 8.1637,44.5172 8.097,44.537 8.0304,44.5589 7.9637,44.5828 7.897,44.6089 7.8303,44.637 7.7637,44.6672 7.697,44.6995 l 0,0 1.0668,-2.4892 z"
     class="fil7"
     sodipodi:nodetypes="ccccccccccccccccccccccccccccccccccccccccc" /></g></g>
</svg>