<svg xmlns:ns0="http://www.iki.fi/pav/software/textext/" xmlns:dc="http://purl.org/dc/elements/1.1/" xmlns:cc="http://creativecommons.org/ns#" xmlns:rdf="http://www.w3.org/1999/02/22-rdf-syntax-ns#" xmlns:svg="http://www.w3.org/2000/svg" xmlns="http://www.w3.org/2000/svg" xmlns:xlink="http://www.w3.org/1999/xlink" xmlns:sodipodi="http://sodipodi.sourceforge.net/DTD/sodipodi-0.dtd" xmlns:inkscape="http://www.inkscape.org/namespaces/inkscape" width="865.3206176757812" height="400.0534362792969" version="1.1" inkscape:version="0.47pre4 r22446" sodipodi:docname="force2.svg"><rect id="backgroundrect" width="100%" height="100%" x="0" y="0" fill="none" stroke="none"/>
  <sodipodi:namedview id="base" pagecolor="#ffffff" bordercolor="#666666" borderopacity="1.0" inkscape:pageopacity="0.0" inkscape:pageshadow="2" inkscape:zoom="5.6" inkscape:cx="200.61049" inkscape:cy="375.93702" inkscape:document-units="px" inkscape:current-layer="layer1" showgrid="false" inkscape:window-width="1280" inkscape:window-height="726" inkscape:window-x="0" inkscape:window-y="25" inkscape:window-maximized="1"/>
  <defs id="defs4">
    <marker style="overflow:visible" id="Arrow1Send" refX="0" refY="0" orient="auto" inkscape:stockid="Arrow1Send">
      <path style="fill-rule:evenodd;stroke:#000000;stroke-width:1pt;marker-start:none" d="M-1.2,0 L-2.2,1 L1.3,0 L-2.2,-1 L-1.2,0 z" id="path3622"/>
    </marker>
    <marker style="overflow:visible" id="Arrow1Mend" refX="0" refY="0" orient="auto" inkscape:stockid="Arrow1Mend">
      <path style="fill-rule:evenodd;stroke:#000000;stroke-width:1pt;marker-start:none" d="M-4,0 L-6,2 L1,0 L-6,-2 L-4,0 z" id="path3616"/>
    </marker>
    <linearGradient id="linearGradient3590">
      <stop id="stop3592" offset="0" style="stop-color:#005e00;stop-opacity:0.53781515;"/>
      <stop id="stop3594" offset="1" style="stop-color:#005e00;stop-opacity:1;"/>
    </linearGradient>
    <inkscape:perspective id="perspective10" inkscape:persp3d-origin="372.04724 : 350.78739 : 1" inkscape:vp_z="744.09448 : 526.18109 : 1" inkscape:vp_y="0 : 1000 : 0" inkscape:vp_x="0 : 526.18109 : 1" sodipodi:type="inkscape:persp3d"/>
    <inkscape:perspective sodipodi:type="inkscape:persp3d" inkscape:vp_x="0 : 0.5 : 1" inkscape:vp_y="0 : 1000 : 0" inkscape:vp_z="1 : 0.5 : 1" inkscape:persp3d-origin="0.5 : 0.33333333 : 1" id="perspective4060"/>
    <marker style="overflow:visible" id="Arrow1Mend-0" refX="0" refY="0" orient="auto" inkscape:stockid="Arrow1Mend">
      <path style="fill-rule:evenodd;stroke:#000000;stroke-width:1pt;marker-start:none" d="M-4,0 L-6,2 L1,0 L-6,-2 L-4,0 z" id="path3616-7"/>
    </marker>
    <marker style="overflow:visible" id="Arrow1MendD" refX="0" refY="0" orient="auto" inkscape:stockid="Arrow1MendD">
      <path style="fill:#ee0000;fill-rule:evenodd;stroke:#ee0000;stroke-width:1pt;marker-start:none" d="M-4,0 L-6,2 L1,0 L-6,-2 L-4,0 z" id="path4093"/>
    </marker>
    <marker style="overflow:visible" id="Arrow1Mendy" refX="0" refY="0" orient="auto" inkscape:stockid="Arrow1Mendy">
      <path style="fill:#0000e1;fill-rule:evenodd;stroke:#0000e1;stroke-width:1pt;marker-start:none" d="M-4,0 L-6,2 L1,0 L-6,-2 L-4,0 z" id="path4139"/>
    </marker>
    <marker style="overflow:visible" id="Arrow1Sendo" refX="0" refY="0" orient="auto" inkscape:stockid="Arrow1Sendo">
      <path style="fill:#ee0000;fill-rule:evenodd;stroke:#ee0000;stroke-width:1pt;marker-start:none" d="M-1.2,0 L-2.2,1 L1.3,0 L-2.2,-1 L-1.2,0 z" id="path4384"/>
    </marker>
    <marker style="overflow:visible" id="Arrow1Sendl" refX="0" refY="0" orient="auto" inkscape:stockid="Arrow1Sendl">
      <path style="fill:#0000e1;fill-rule:evenodd;stroke:#0000e1;stroke-width:1pt;marker-start:none" d="M-1.2,0 L-2.2,1 L1.3,0 L-2.2,-1 L-1.2,0 z" id="path4387"/>
    </marker>
    <inkscape:perspective id="perspective4434" inkscape:persp3d-origin="0.5 : 0.33333333 : 1" inkscape:vp_z="1 : 0.5 : 1" inkscape:vp_y="0 : 1000 : 0" inkscape:vp_x="0 : 0.5 : 1" sodipodi:type="inkscape:persp3d"/>
    <radialGradient inkscape:collect="always" xlink:href="#linearGradient3590" id="radialGradient4456" gradientUnits="userSpaceOnUse" gradientTransform="matrix(1,0,0,0.46126168,38.28406,210.0144)" cx="342.69427490234375" cy="395.7630920410156" fx="342.69427490234375" fy="395.7630920410156" r="140.15869140625"/>
    <inkscape:perspective id="perspective4672" inkscape:persp3d-origin="0.5 : 0.33333333 : 1" inkscape:vp_z="1 : 0.5 : 1" inkscape:vp_y="0 : 1000 : 0" inkscape:vp_x="0 : 0.5 : 1" sodipodi:type="inkscape:persp3d"/>
    <inkscape:perspective id="perspective4672-0" inkscape:persp3d-origin="0.5 : 0.33333333 : 1" inkscape:vp_z="1 : 0.5 : 1" inkscape:vp_y="0 : 1000 : 0" inkscape:vp_x="0 : 0.5 : 1" sodipodi:type="inkscape:persp3d"/>
    <inkscape:perspective id="perspective7683" inkscape:persp3d-origin="0.5 : 0.33333333 : 1" inkscape:vp_z="1 : 0.5 : 1" inkscape:vp_y="0 : 1000 : 0" inkscape:vp_x="0 : 0.5 : 1" sodipodi:type="inkscape:persp3d"/>
    <marker style="overflow:visible" id="Arrow1Sendo-6" refX="0" refY="0" orient="auto" inkscape:stockid="Arrow1Sendo">
      <path style="fill:#ee0000;fill-rule:evenodd;stroke:#ee0000;stroke-width:1pt;marker-start:none" d="M-1.2,0 L-2.2,1 L1.3,0 L-2.2,-1 L-1.2,0 z" id="path4384-9"/>
    </marker>
  </defs>
  <metadata id="metadata7">
    <rdf:RDF>
      <cc:Work rdf:about="">
        <dc:format>image/svg+xml</dc:format>
        <dc:type rdf:resource="http://purl.org/dc/dcmitype/StillImage"/>
        <dc:title/>
      </cc:Work>
    </rdf:RDF>
  </metadata>
  
<g class="currentLayer"><title>Layer 1</title>
    <rect ry="0" y="234.67222595214844" x="11.367965698242188" height="48.48732376098633" width="424.2640686035156" id="rect3600" style="fill:#ff9800;fill-opacity:1;stroke:none" class=""/>
    <rect ry="30.304576873779297" y="104.10087561607361" x="81.96897983551025" height="129.29966735839844" width="280.3173828125" id="rect2816" style="fill:url(#radialGradient4456);fill-opacity:1;stroke:#000000;stroke-width:2.5;stroke-miterlimit:4;stroke-opacity:1;stroke-dasharray:none" class=""/><rect ry="30.304576873779297" y="99.67339396476746" x="497.84511947631836" height="129.29966735839844" width="280.3173828125" style="fill:url(#radialGradient4456);fill-opacity:1;stroke:#000000;stroke-width:2.5;stroke-miterlimit:4;stroke-opacity:1;stroke-dasharray:none" class="" id="svg_1"/>
    <path id="path3598" d="m8.499998789062488,234.79564955406187 c430,0 430,0 430,0 " style="fill:none;stroke:#000000;stroke-width:2.5;stroke-linecap:butt;stroke-linejoin:miter;stroke-miterlimit:4;stroke-opacity:1;stroke-dasharray:none" class=""/>
    <path style="fill:none;stroke:#ee0000;stroke-width:6;stroke-linecap:butt;stroke-linejoin:miter;stroke-miterlimit:4;stroke-opacity:1;stroke-dasharray:none;marker-end:url(#Arrow1Sendo)" d="m638.003867923584,39.98800022243502 l0,99.99999403953552 " id="path7168" class=""/>
    <path id="path4424" d="m643.5503974841308,163.83599563545226 c0,3.06327 -2.48327,5.54654 -5.54653,5.54654 c-3.06327,0 -5.54654,-2.48327 -5.54654,-5.54654 c0,-3.06327 2.48327,-5.54654 5.54654,-5.54654 c3.06326,0 5.54653,2.48327 5.54653,5.54654 z" style="fill:#ffffff;fill-opacity:1;stroke:#000000;stroke-width:0.62121212;stroke-miterlimit:4;stroke-opacity:1" class=""/>
    <path style="fill:none;stroke:#0000e1;stroke-width:6;stroke-linecap:butt;stroke-linejoin:miter;stroke-miterlimit:4;stroke-opacity:1;stroke-dasharray:none;marker-end:url(#Arrow1Sendl)" d="m638.0038116753387,348.18015265134005 l0,-94.65648531913757 " id="path7168-6" class=""/>
    <path id="path4424-2" d="m643.5503758337402,225.37842072265624 c0,3.06327 -2.48327,5.54654 -5.54653,5.54654 c-3.06327,0 -5.54654,-2.48327 -5.54654,-5.54654 c0,-3.06327 2.48327,-5.54654 5.54654,-5.54654 c3.06326,0 5.54653,2.48327 5.54653,5.54654 z" style="fill:#ffffff;fill-opacity:1;stroke:#000000;stroke-width:0.62121212;stroke-miterlimit:4;stroke-opacity:1" class=""/>
    <g ns0:text="$m$" ns0:preamble="" id="g4516" class="">
      <defs id="defs4518" transform="translate(-163.35877990722656,6.870229244232178) translate(-1.5267176628112793,-1.5267176628112793) translate(-0.7633588314056396,0) translate(2.290076494216919,2.290076494216919) matrix(3.8669508,0,0,3.8669508,-491.18053858530277,-346.43661653056796) " stroke-width="0">
        <g id="g4520">
          <symbol style="overflow:visible" overflow="visible" id="textext-3003ad0b-0">
            <path style="stroke:none" d="" id="path4523"/>
          </symbol>
          <symbol style="overflow:visible" overflow="visible" id="textext-3003ad0b-1">
            <path style="stroke:none" d="m 0.875,-0.59375 c -0.03125,0.15625 -0.09375,0.390625 -0.09375,0.4375 0,0.171875 0.140625,0.265625 0.296875,0.265625 0.125,0 0.296875,-0.078125 0.375,-0.28125 0,-0.015625 0.125,-0.484375 0.1875,-0.734375 C 1.703125,-1.203125 1.78125,-1.5 1.859375,-1.796875 1.90625,-2.03125 1.96875,-2.25 2.03125,-2.46875 c 0.03125,-0.171875 0.109375,-0.46875 0.125,-0.5 0.140625,-0.3125 0.671875,-1.21875 1.625,-1.21875 0.453125,0 0.53125,0.375 0.53125,0.703125 0,0.25 -0.0625,0.53125 -0.140625,0.828125 C 4.046875,-2.15625 4,-1.953125 3.890625,-1.5 3.78125,-1.140625 3.78125,-1.078125 3.6875,-0.75 c -0.03125,0.203125 -0.125,0.546875 -0.125,0.59375 0,0.171875 0.140625,0.265625 0.28125,0.265625 0.3125,0 0.375,-0.25 0.453125,-0.5625 0.140625,-0.5625 0.515625,-2.015625 0.59375,-2.40625 0.03125,-0.125 0.5625,-1.328125 1.65625,-1.328125 0.421875,0 0.53125,0.34375 0.53125,0.703125 0,0.5625 -0.421875,1.703125 -0.625,2.234375 -0.078125,0.234375 -0.125,0.34375 -0.125,0.546875 0,0.46875 0.34375,0.8125 0.8125,0.8125 0.9375,0 1.3125,-1.453125 1.3125,-1.53125 0,-0.109375 -0.09375,-0.109375 -0.125,-0.109375 -0.09375,0 -0.09375,0.03125 -0.140625,0.1875 -0.15625,0.53125 -0.46875,1.234375 -1.015625,1.234375 -0.171875,0 -0.25,-0.09375 -0.25,-0.328125 0,-0.25 0.09375,-0.484375 0.1875,-0.703125 0.1875,-0.53125 0.609375,-1.625 0.609375,-2.203125 0,-0.640625 -0.40625,-1.0625 -1.15625,-1.0625 -0.734375,0 -1.25,0.4375 -1.625,0.96875 0,-0.125 -0.03125,-0.46875 -0.3125,-0.703125 -0.25,-0.21875 -0.5625,-0.265625 -0.8125,-0.265625 -0.90625,0 -1.390625,0.640625 -1.5625,0.875 -0.046875,-0.578125 -0.46875,-0.875 -0.921875,-0.875 -0.453125,0 -0.640625,0.390625 -0.734375,0.5625 -0.171875,0.359375 -0.296875,0.9375 -0.296875,0.96875 0,0.109375 0.09375,0.109375 0.109375,0.109375 0.109375,0 0.109375,-0.015625 0.171875,-0.234375 0.171875,-0.703125 0.375,-1.1875 0.734375,-1.1875 0.15625,0 0.296875,0.078125 0.296875,0.453125 0,0.21875 -0.03125,0.328125 -0.15625,0.84375 L 0.875,-0.59375 z m 0,0" id="path4526"/>
          </symbol>
        </g>
      </defs>
      <g id="textext-3003ad0b-2" stroke-width="0">
        <g style="fill:#000000;fill-opacity:1" id="g4529" stroke-width="0">
          <use height="397" width="447" xlink:href="#textext-3003ad0b-1" x="140.30549795163205" y="77.87334018877286" id="use4531" transform="matrix(3.8669507999999997,0,0,3.8669507999999997,-333.09322350578304,-118.80577350578307) " stroke-width="0"/>
        </g>
      </g>
    </g>
    <g ns0:text="$N$" ns0:preamble="" id="g4797" class="">
      <defs id="defs4799" transform="translate(-61.83206558227539,-2.290076494216919) translate(471.7557373046875,287.7862854003906) translate(-1.5267176628112793,-1.5267176628112793) translate(-0.7633588314056396,0) translate(2.290076494216919,2.290076494216919) matrix(3.8669508,0,0,3.8669508,-625.3498885853028,-463.31420653056796) " stroke-width="0">
        <g id="g4801">
          <symbol style="overflow:visible" overflow="visible" id="textext-f0ed7e9c-0">
            <path style="stroke:none" d="" id="path4804"/>
          </symbol>
          <symbol style="overflow:visible" overflow="visible" id="textext-f0ed7e9c-1">
            <path style="stroke:none" d="M 7.53125,-5.765625 C 7.640625,-6.15625 7.8125,-6.46875 8.609375,-6.5 c 0.046875,0 0.171875,-0.015625 0.171875,-0.203125 0,0 0,-0.109375 -0.125,-0.109375 -0.328125,0 -0.6875,0.03125 -1.015625,0.03125 -0.328125,0 -0.6875,-0.03125 -1.015625,-0.03125 -0.0625,0 -0.171875,0 -0.171875,0.203125 C 6.453125,-6.5 6.546875,-6.5 6.625,-6.5 c 0.578125,0.015625 0.6875,0.21875 0.6875,0.4375 0,0.03125 -0.03125,0.1875 -0.03125,0.203125 l -1.125,4.4375 L 3.953125,-6.625 C 3.875,-6.796875 3.875,-6.8125 3.640625,-6.8125 l -1.34375,0 c -0.1875,0 -0.28125,0 -0.28125,0.203125 0,0.109375 0.09375,0.109375 0.28125,0.109375 0.046875,0 0.671875,0 0.671875,0.09375 L 1.640625,-1.0625 c -0.109375,0.40625 -0.28125,0.71875 -1.078125,0.75 -0.0625,0 -0.171875,0.015625 -0.171875,0.203125 0,0.0625 0.046875,0.109375 0.125,0.109375 0.328125,0 0.671875,-0.03125 1,-0.03125 C 1.859375,-0.03125 2.21875,0 2.546875,0 2.59375,0 2.71875,0 2.71875,-0.203125 2.71875,-0.296875 2.625,-0.3125 2.515625,-0.3125 1.9375,-0.328125 1.859375,-0.546875 1.859375,-0.75 c 0,-0.0625 0.015625,-0.125 0.046875,-0.234375 l 1.3125,-5.25 C 3.265625,-6.1875 3.265625,-6.15625 3.3125,-6.0625 l 2.484375,5.875 C 5.859375,-0.015625 5.890625,0 5.984375,0 6.09375,0 6.09375,-0.03125 6.140625,-0.203125 l 1.390625,-5.5625 z m 0,0" id="path4807"/>
          </symbol>
        </g>
      </defs>
      <g id="textext-f0ed7e9c-2" stroke-width="0">
        <g style="fill:#000000;fill-opacity:1" id="g4810" stroke-width="0">
          <use height="397" width="447" xlink:href="#textext-f0ed7e9c-1" x="288.55730371232187" y="149.92648963087936" id="use4812" transform="matrix(3.8669507999999997,0,0,3.8669507999999997,-467.262573505783,-235.68336350578306) " stroke-width="0"/>
        </g>
      </g>
    </g>
    <g id="g4936" ns0:preamble="" ns0:text="$mg$" class="">
      <defs id="defs4938" transform="translate(-61.83206558227539,-2.290076494216919) translate(467.93896484375,-282.4427490234375) translate(-1.5267176628112793,-1.5267176628112793) translate(-0.7633588314056396,0) translate(2.290076494216919,2.290076494216919) matrix(3.8669508,0,0,3.8669508,-617.2686785853027,-174.41057353056794) " stroke-width="0">
        <g id="g4940">
          <symbol id="textext-7397e957-0" overflow="visible">
            <path id="path4943" d="" style="stroke:none;"/>
          </symbol>
          <symbol id="textext-7397e957-1" overflow="visible">
            <path id="path4946" d="M 0.875 -0.59375 C 0.84375 -0.4375 0.78125 -0.203125 0.78125 -0.15625 C 0.78125 0.015625 0.921875 0.109375 1.078125 0.109375 C 1.203125 0.109375 1.375 0.03125 1.453125 -0.171875 C 1.453125 -0.1875 1.578125 -0.65625 1.640625 -0.90625 C 1.703125 -1.203125 1.78125 -1.5 1.859375 -1.796875 C 1.90625 -2.03125 1.96875 -2.25 2.03125 -2.46875 C 2.0625 -2.640625 2.140625 -2.9375 2.15625 -2.96875 C 2.296875 -3.28125 2.828125 -4.1875 3.78125 -4.1875 C 4.234375 -4.1875 4.3125 -3.8125 4.3125 -3.484375 C 4.3125 -3.234375 4.25 -2.953125 4.171875 -2.65625 C 4.046875 -2.15625 4 -1.953125 3.890625 -1.5 C 3.78125 -1.140625 3.78125 -1.078125 3.6875 -0.75 C 3.65625 -0.546875 3.5625 -0.203125 3.5625 -0.15625 C 3.5625 0.015625 3.703125 0.109375 3.84375 0.109375 C 4.15625 0.109375 4.21875 -0.140625 4.296875 -0.453125 C 4.4375 -1.015625 4.8125 -2.46875 4.890625 -2.859375 C 4.921875 -2.984375 5.453125 -4.1875 6.546875 -4.1875 C 6.96875 -4.1875 7.078125 -3.84375 7.078125 -3.484375 C 7.078125 -2.921875 6.65625 -1.78125 6.453125 -1.25 C 6.375 -1.015625 6.328125 -0.90625 6.328125 -0.703125 C 6.328125 -0.234375 6.671875 0.109375 7.140625 0.109375 C 8.078125 0.109375 8.453125 -1.34375 8.453125 -1.421875 C 8.453125 -1.53125 8.359375 -1.53125 8.328125 -1.53125 C 8.234375 -1.53125 8.234375 -1.5 8.1875 -1.34375 C 8.03125 -0.8125 7.71875 -0.109375 7.171875 -0.109375 C 7 -0.109375 6.921875 -0.203125 6.921875 -0.4375 C 6.921875 -0.6875 7.015625 -0.921875 7.109375 -1.140625 C 7.296875 -1.671875 7.71875 -2.765625 7.71875 -3.34375 C 7.71875 -3.984375 7.3125 -4.40625 6.5625 -4.40625 C 5.828125 -4.40625 5.3125 -3.96875 4.9375 -3.4375 C 4.9375 -3.5625 4.90625 -3.90625 4.625 -4.140625 C 4.375 -4.359375 4.0625 -4.40625 3.8125 -4.40625 C 2.90625 -4.40625 2.421875 -3.765625 2.25 -3.53125 C 2.203125 -4.109375 1.78125 -4.40625 1.328125 -4.40625 C 0.875 -4.40625 0.6875 -4.015625 0.59375 -3.84375 C 0.421875 -3.484375 0.296875 -2.90625 0.296875 -2.875 C 0.296875 -2.765625 0.390625 -2.765625 0.40625 -2.765625 C 0.515625 -2.765625 0.515625 -2.78125 0.578125 -3 C 0.75 -3.703125 0.953125 -4.1875 1.3125 -4.1875 C 1.46875 -4.1875 1.609375 -4.109375 1.609375 -3.734375 C 1.609375 -3.515625 1.578125 -3.40625 1.453125 -2.890625 L 0.875 -0.59375 Z M 0.875 -0.59375 " style="stroke:none;"/>
          </symbol>
          <symbol id="textext-7397e957-2" overflow="visible">
            <path id="path4949" d="M 4.6875 -3.765625 C 4.703125 -3.8125 4.71875 -3.875 4.71875 -3.9375 C 4.71875 -4.109375 4.609375 -4.203125 4.4375 -4.203125 C 4.34375 -4.203125 4.0625 -4.140625 4.03125 -3.78125 C 3.84375 -4.140625 3.5 -4.40625 3.09375 -4.40625 C 1.96875 -4.40625 0.734375 -3.015625 0.734375 -1.578125 C 0.734375 -0.59375 1.328125 0 2.046875 0 C 2.640625 0 3.109375 -0.46875 3.203125 -0.578125 L 3.21875 -0.5625 C 3.015625 0.3125 2.890625 0.734375 2.890625 0.75 C 2.84375 0.84375 2.515625 1.828125 1.453125 1.828125 C 1.265625 1.828125 0.9375 1.8125 0.65625 1.71875 C 0.953125 1.640625 1.0625 1.375 1.0625 1.203125 C 1.0625 1.046875 0.953125 0.859375 0.6875 0.859375 C 0.46875 0.859375 0.15625 1.03125 0.15625 1.4375 C 0.15625 1.84375 0.515625 2.046875 1.46875 2.046875 C 2.71875 2.046875 3.4375 1.265625 3.59375 0.671875 L 4.6875 -3.765625 Z M 3.40625 -1.28125 C 3.34375 -1.015625 3.109375 -0.765625 2.890625 -0.578125 C 2.6875 -0.40625 2.375 -0.21875 2.078125 -0.21875 C 1.578125 -0.21875 1.4375 -0.734375 1.4375 -1.140625 C 1.4375 -1.609375 1.71875 -2.796875 2 -3.296875 C 2.265625 -3.78125 2.6875 -4.1875 3.109375 -4.1875 C 3.765625 -4.1875 3.90625 -3.375 3.90625 -3.328125 C 3.90625 -3.28125 3.890625 -3.21875 3.875 -3.1875 L 3.40625 -1.28125 Z M 3.40625 -1.28125 " style="stroke:none;"/>
          </symbol>
        </g>
      </defs>
      <g id="textext-7397e957-3" stroke-width="0">
        <g id="g4952" style="fill:rgb(0%,0%,0%);fill-opacity:1;" stroke-width="0">
          <use id="use4954" y="2.4642982875718733" x="287.570273683025" xlink:href="#textext-7397e957-1" transform="matrix(3.8669507999999997,0,0,3.8669507999999997,-459.181363505783,53.220269494216915) " stroke-width="0"/>
          <use id="use4956" y="2.4642982875718733" x="296.31743554825937" xlink:href="#textext-7397e957-2" transform="matrix(3.8669507999999997,0,0,3.8669507999999997,-459.181363505783,53.220269494216915) " stroke-width="0"/>
        </g>
      </g>
    </g>
  </g></svg>